{
  "accessors": [
    {
      "bufferView": 2,
      "componentType": 5126,
      "count": 6,
      "max": [
        0.16188600659370422,
        -0.13251499831676483,
        -0.69551002979278564
      ],
      "min": [
        -0.16188900172710419,
        -0.13350600004196167,
        -0.69551599025726318
      ],
      "type": "VEC3"
    },
    {
      "bufferView": 2,
      "byteOffset": 72,
      "componentType": 5126,
      "count": 6,
      "max": [
        0.0094507988542318344,
        0.10003198683261871,
        0.99995690584182739
      ],
      "min": [
        -0.96887189149856567,
        -0.00098366790916770697,
        0.22645297646522522
      ],
      "type": "VEC3"
    },
    {
      "bufferView": 1,
      "componentType": 5126,
      "count": 6,
      "max": [
        -0.45321398973464966,
        0.23070999979972839
      ],
      "min": [
        -0.71293598413467407,
        0.23050299286842346
      ],
      "type": "VEC2"
    },
    {
      "bufferView": 1,
      "byteOffset": 48,
      "componentType": 5126,
      "count": 6,
      "max": [
        0.73228800296783447,
        0.15339499711990356
      ],
      "min": [
        0.47256600856781006,
        0.15318800508975983
      ],
      "type": "VEC2"
    },
    {
      "bufferView": 0,
      "componentType": 5125,
      "count": 6,
      "max": [
        5
      ],
      "min": [
        0
      ],
      "type": "SCALAR"
    },
    {
      "bufferView": 2,
      "byteOffset": 144,
      "componentType": 5126,
      "count": 5685,
      "max": [
        0.63555800914764404,
        0.33235800266265869,
        0.79004502296447754
      ],
      "min": [
        -0.63556200265884399,
        -0.33343499898910522,
        -1.1984399557113647
      ],
      "type": "VEC3"
    },
    {
      "bufferView": 2,
      "byteOffset": 68364,
      "componentType": 5126,
      "count": 5685,
      "max": [
        1,
        0.99994397163391113,
        1
      ],
      "min": [
        -1,
        -0.999900221824646,
        -0.99999409914016724
      ],
      "type": "VEC3"
    },
    {
      "bufferView": 3,
      "componentType": 5126,
      "count": 5685,
      "max": [
        1,
        1,
        1,
        1
      ],
      "min": [
        -1,
        -0.99999630451202393,
        -1,
        -1
      ],
      "type": "VEC4"
    },
    {
      "bufferView": 1,
      "byteOffset": 96,
      "componentType": 5126,
      "count": 5685,
      "max": [
        0.99178200960159302,
        0.99949997663497925
      ],
      "min": [
        0.00050000002374872565,
        0.00050000002374872565
      ],
      "type": "VEC2"
    },
    {
      "bufferView": 1,
      "byteOffset": 45576,
      "componentType": 5126,
      "count": 5685,
      "max": [
        0.99819397926330566,
        0.093781501054763794
      ],
      "min": [
        -0.26534000039100647,
        -1.0041199922561646
      ],
      "type": "VEC2"
    },
    {
      "bufferView": 0,
      "byteOffset": 24,
      "componentType": 5125,
      "count": 18474,
      "max": [
        5684
      ],
      "min": [
        0
      ],
      "type": "SCALAR"
    },
    {
      "bufferView": 2,
      "byteOffset": 136584,
      "componentType": 5126,
      "count": 1210,
      "max": [
        0.64257198572158813,
        0.37828901410102844,
        0.8015589714050293
      ],
      "min": [
        -0.64257597923278809,
        -0.37209600210189819,
        -1.1613999605178833
      ],
      "type": "VEC3"
    },
    {
      "bufferView": 2,
      "byteOffset": 151104,
      "componentType": 5126,
      "count": 1210,
      "max": [
        0.99963599443435669,
        0.99584949016571045,
        0.92976760864257812
      ],
      "min": [
        -0.99963599443435669,
        -0.99999761581420898,
        -0.83709919452667236
      ],
      "type": "VEC3"
    },
    {
      "bufferView": 3,
      "byteOffset": 90960,
      "componentType": 5126,
      "count": 1210,
      "max": [
        1,
        0.99997669458389282,
        0.96911358833312988,
        1
      ],
      "min": [
        -1,
        -0.99997097253799438,
        -0.93908214569091797,
        1
      ],
      "type": "VEC4"
    },
    {
      "bufferView": 1,
      "byteOffset": 91056,
      "componentType": 5126,
      "count": 1210,
      "max": [
        0.9748079776763916,
        0.99348300695419312
      ],
      "min": [
        0.00050000002374872565,
        0.00051654799608513713
      ],
      "type": "VEC2"
    },
    {
      "bufferView": 1,
      "byteOffset": 100736,
      "componentType": 5126,
      "count": 1210,
      "max": [
        0.27298200130462646,
        1.9492299556732178
      ],
      "min": [
        -0.83039802312850952,
        0.00050000002374872565
      ],
      "type": "VEC2"
    },
    {
      "bufferView": 0,
      "byteOffset": 73920,
      "componentType": 5125,
      "count": 4491,
      "max": [
        1209
      ],
      "min": [
        0
      ],
      "type": "SCALAR"
    },
    {
      "bufferView": 2,
      "byteOffset": 165624,
      "componentType": 5126,
      "count": 145,
      "max": [
        0.11819200217723846,
        -0.037696700543165207,
        -0.73275697231292725
      ],
      "min": [
        -0.14984700083732605,
        -0.24789999425411224,
        -0.90718001127243042
      ],
      "type": "VEC3"
    },
    {
      "bufferView": 2,
      "byteOffset": 167364,
      "componentType": 5126,
      "count": 145,
      "max": [
        0.773856520652771,
        0.99970877170562744,
        0.066580832004547119
      ],
      "min": [
        -0.99489074945449829,
        -0.21432512998580933,
        -0.80740368366241455
      ],
      "type": "VEC3"
    },
    {
      "bufferView": 3,
      "byteOffset": 110320,
      "componentType": 5126,
      "count": 145,
      "max": [
        0.11217978596687317,
        0.87224841117858887,
        0.99991577863693237,
        1
      ],
      "min": [
        -0.35664615035057068,
        -0.87226790189743042,
        -0.99991607666015625,
        1
      ],
      "type": "VEC4"
    },
    {
      "bufferView": 1,
      "byteOffset": 110416,
      "componentType": 5126,
      "count": 145,
      "max": [
        0.99949997663497925,
        0.99550801515579224
      ],
      "min": [
        0.00050000002374872565,
        0.00050000002374872565
      ],
      "type": "VEC2"
    },
    {
      "bufferView": 1,
      "byteOffset": 111576,
      "componentType": 5126,
      "count": 145,
      "max": [
        2.0326099395751953,
        0.99550801515579224
      ],
      "min": [
        1.0336099863052368,
        0.00050000002374872565
      ],
      "type": "VEC2"
    },
    {
      "bufferView": 0,
      "byteOffset": 91884,
      "componentType": 5125,
      "count": 384,
      "max": [
        144
      ],
      "min": [
        0
      ],
      "type": "SCALAR"
    },
    {
      "bufferView": 2,
      "byteOffset": 169104,
      "componentType": 5126,
      "count": 3350,
      "max": [
        0.63556402921676636,
        0.3649199903011322,
        0.8015589714050293
      ],
      "min": [
        -0.63556200265884399,
        -0.34443399310112,
        -1.0964800119400024
      ],
      "type": "VEC3"
    },
    {
      "bufferView": 2,
      "byteOffset": 209304,
      "componentType": 5126,
      "count": 3350,
      "max": [
        0.999988853931427,
        1,
        1
      ],
      "min": [
        -0.9999886155128479,
        -0.98901075124740601,
        -1
      ],
      "type": "VEC3"
    },
    {
      "bufferView": 3,
      "byteOffset": 112640,
      "componentType": 5126,
      "count": 3350,
      "max": [
        0.98373508453369141,
        0.99999839067459106,
        0.99989765882492065,
        1
      ],
      "min": [
        -1,
        -0.99999964237213135,
        -0.99995613098144531,
        -1
      ],
      "type": "VEC4"
    },
    {
      "bufferView": 1,
      "byteOffset": 112736,
      "componentType": 5126,
      "count": 3350,
      "max": [
        1.0018399953842163,
        0.98450499773025513
      ],
      "min": [
        0.0028369699139147997,
        -0.00056847301311790943
      ],
      "type": "VEC2"
    },
    {
      "bufferView": 1,
      "byteOffset": 139536,
      "componentType": 5126,
      "count": 3350,
      "max": [
        0.99949997663497925,
        2.0241599082946777
      ],
      "min": [
        0.00050000002374872565,
        1.0436099767684937
      ],
      "type": "VEC2"
    },
    {
      "bufferView": 0,
      "byteOffset": 93420,
      "componentType": 5125,
      "count": 10554,
      "max": [
        3349
      ],
      "min": [
        0
      ],
      "type": "SCALAR"
    }
  ],
  "asset": {
    "extras": {
      "author": "rsatenza (https://sketchfab.com/rsatenza)",
      "license": "CC-BY-4.0 (http://creativecommons.org/licenses/by/4.0/)",
      "source": "https://sketchfab.com/3d-models/discovery-space-shuttle-23c579b845e841c9b6c6d59bd5725bb6",
      "title": "Discovery Space Shuttle"
    },
    "generator": "Sketchfab-9.62.3",
    "version": "2.0"
  },
  "bufferViews": [
    {
      "buffer": 0,
      "byteLength": 135636,
      "byteOffset": 0,
      "name": "floatBufferViews",
      "target": 34963
    },
    {
      "buffer": 0,
      "byteLength": 166336,
      "byteOffset": 135636,
      "byteStride": 8,
      "name": "floatBufferViews",
      "target": 34962
    },
    {
      "buffer": 0,
      "byteLength": 249504,
      "byteOffset": 301972,
      "byteStride": 12,
      "name": "floatBufferViews",
      "target": 34962
    },
    {
      "buffer": 0,
      "byteLength": 166240,
      "byteOffset": 551476,
      "byteStride": 16,
      "name": "floatBufferViews",
      "target": 34962
    }
  ],
  "buffers": [
    {
      "byteLength": 717716,
      "uri": "scene.bin"
    }
  ],
  "images": [
    {
      "uri": "textures/Metal_Base_baseColor.jpeg"
    },
    {
      "uri": "textures/Metal_Base_metallicRoughness.png"
    },
    {
      "uri": "textures/Metal_Base_normal.png"
    },
    {
      "uri": "textures/Cristal_baseColor.png"
    },
    {
      "uri": "textures/Cristal_metallicRoughness.png"
    },
    {
      "uri": "textures/Cristal_normal.png"
    },
    {
      "uri": "textures/Coraza_baseColor.jpeg"
    },
    {
      "uri": "textures/Coraza_metallicRoughness.png"
    },
    {
      "uri": "textures/Coraza_normal.png"
    },
    {
      "uri": "textures/Metal_Detalle_baseColor.jpeg"
    },
    {
      "uri": "textures/Metal_Detalle_metallicRoughness.png"
    },
    {
      "uri": "textures/Metal_Detalle_normal.png"
    }
  ],
  "materials": [
    {
      "doubleSided": true,
      "name": "Metal_Base",
      "normalTexture": {
        "index": 2,
        "scale": 1,
        "texCoord": 0
      },
      "occlusionTexture": {
        "index": 1,
        "strength": 1,
        "texCoord": 0
      },
      "pbrMetallicRoughness": {
        "baseColorFactor": [
          1,
          1,
          1,
          1
        ],
        "baseColorTexture": {
          "index": 0,
          "texCoord": 0
        },
        "metallicFactor": 1,
        "metallicRoughnessTexture": {
          "index": 1,
          "texCoord": 0
        },
        "roughnessFactor": 1
      }
    },
    {
      "alphaMode": "BLEND",
      "doubleSided": true,
      "name": "Cristal",
      "normalTexture": {
        "index": 5,
        "scale": 1,
        "texCoord": 0
      },
      "occlusionTexture": {
        "index": 4,
        "strength": 1,
        "texCoord": 0
      },
      "pbrMetallicRoughness": {
        "baseColorFactor": [
          1,
          1,
          1,
          1
        ],
        "baseColorTexture": {
          "index": 3,
          "texCoord": 0
        },
        "metallicFactor": 1,
        "metallicRoughnessTexture": {
          "index": 4,
          "texCoord": 0
        },
        "roughnessFactor": 1
      }
    },
    {
      "doubleSided": true,
      "name": "Coraza",
      "normalTexture": {
        "index": 8,
        "scale": 1,
        "texCoord": 0
      },
      "occlusionTexture": {
        "index": 7,
        "strength": 1,
        "texCoord": 0
      },
      "pbrMetallicRoughness": {
        "baseColorFactor": [
          1,
          1,
          1,
          1
        ],
        "baseColorTexture": {
          "index": 6,
          "texCoord": 0
        },
        "metallicFactor": 1,
        "metallicRoughnessTexture": {
          "index": 7,
          "texCoord": 0
        },
        "roughnessFactor": 1
      }
    },
    {
      "doubleSided": true,
      "name": "Metal_Detalle",
      "normalTexture": {
        "index": 11,
        "scale": 1,
        "texCoord": 0
      },
      "occlusionTexture": {
        "index": 10,
        "strength": 1,
        "texCoord": 0
      },
      "pbrMetallicRoughness": {
        "baseColorFactor": [
          1,
          1,
          1,
          1
        ],
        "baseColorTexture": {
          "index": 9,
          "texCoord": 0
        },
        "metallicFactor": 1,
        "metallicRoughnessTexture": {
          "index": 10,
          "texCoord": 0
        },
        "roughnessFactor": 1
      }
    },
    {
      "doubleSided": true,
      "name": "Transbordador_Slot__6",
      "pbrMetallicRoughness": {
        "baseColorFactor": [
          0,
          0,
          0,
          1
        ],
        "metallicFactor": 0,
        "roughnessFactor": 0.59999999999999998
      }
    }
  ],
  "meshes": [
    {
      "name": "defaultMaterial",
      "primitives": [
        {
          "attributes": {
            "NORMAL": 1,
            "POSITION": 0,
            "TEXCOORD_0": 2,
            "TEXCOORD_1": 3
          },
          "indices": 4,
          "material": 4,
          "mode": 4
        }
      ]
    },
    {
      "name": "defaultMaterial",
      "primitives": [
        {
          "attributes": {
            "NORMAL": 6,
            "POSITION": 5,
            "TANGENT": 7,
            "TEXCOORD_0": 8,
            "TEXCOORD_1": 9
          },
          "indices": 10,
          "material": 3,
          "mode": 4
        }
      ]
    },
    {
      "name": "defaultMaterial",
      "primitives": [
        {
          "attributes": {
            "NORMAL": 12,
            "POSITION": 11,
            "TANGENT": 13,
            "TEXCOORD_0": 14,
            "TEXCOORD_1": 15
          },
          "indices": 16,
          "material": 2,
          "mode": 4
        }
      ]
    },
    {
      "name": "defaultMaterial",
      "primitives": [
        {
          "attributes": {
            "NORMAL": 18,
            "POSITION": 17,
            "TANGENT": 19,
            "TEXCOORD_0": 20,
            "TEXCOORD_1": 21
          },
          "indices": 22,
          "material": 1,
          "mode": 4
        }
      ]
    },
    {
      "name": "defaultMaterial",
      "primitives": [
        {
          "attributes": {
            "NORMAL": 24,
            "POSITION": 23,
            "TANGENT": 25,
            "TEXCOORD_0": 26,
            "TEXCOORD_1": 27
          },
          "indices": 28,
          "material": 0,
          "mode": 4
        }
      ]
    }
  ],
  "nodes": [
    {
      "children": [
        1
      ],
      "name": "RootNode (gltf orientation matrix)",
      "rotation": [
        -0.70710678118654746,
        -0,
        -0,
        0.70710678118654757
      ]
    },
    {
      "children": [
        2
      ],
      "matrix": [
        15.455893516540527,
        0,
        0,
        0,
        0,
        15.455893516540527,
        0,
        0,
        0,
        0,
        15.455893516540527,
        0,
        0,
        -1.1877885341959882e-09,
        -2.3676776095271634e-08,
        1
      ],
      "name": "RootNode (model correction matrix)"
    },
    {
      "children": [
        3,
        5,
        7,
        9,
        11
      ],
      "matrix": [
        1,
        0,
        0,
        0,
        0,
        -4.3711390063094768e-08,
        0.999999999999999,
        0,
        0,
        -0.999999999999999,
        -4.3711390063094768e-08,
        0,
        0,
        0,
        0,
        1
      ],
      "name": "Collada visual scene group"
    },
    {
      "children": [
        4
      ],
      "name": "Nave"
    },
    {
      "mesh": 0,
      "name": "defaultMaterial"
    },
    {
      "children": [
        6
      ],
      "name": "Nave"
    },
    {
      "mesh": 1,
      "name": "defaultMaterial"
    },
    {
      "children": [
        8
      ],
      "name": "Nave"
    },
    {
      "mesh": 2,
      "name": "defaultMaterial"
    },
    {
      "children": [
        10
      ],
      "name": "Nave"
    },
    {
      "mesh": 3,
      "name": "defaultMaterial"
    },
    {
      "children": [
        12
      ],
      "name": "Nave"
    },
    {
      "mesh": 4,
      "name": "defaultMaterial"
    }
  ],
  "samplers": [
    {
      "magFilter": 9729,
      "minFilter": 9987,
      "wrapS": 10497,
      "wrapT": 10497
    }
  ],
  "scene": 0,
  "scenes": [
    {
      "name": "OSG_Scene",
      "nodes": [
        0
      ]
    }
  ],
  "textures": [
    {
      "sampler": 0,
      "source": 0
    },
    {
      "sampler": 0,
      "source": 1
    },
    {
      "sampler": 0,
      "source": 2
    },
    {
      "sampler": 0,
      "source": 3
    },
    {
      "sampler": 0,
      "source": 4
    },
    {
      "sampler": 0,
      "source": 5
    },
    {
      "sampler": 0,
      "source": 6
    },
    {
      "sampler": 0,
      "source": 7
    },
    {
      "sampler": 0,
      "source": 8
    },
    {
      "sampler": 0,
      "source": 9
    },
    {
      "sampler": 0,
      "source": 10
    },
    {
      "sampler": 0,
      "source": 11
    }
  ]
}

